<svg xmlns="http://www.w3.org/2000/svg" xmlns:xlink="http://www.w3.org/1999/xlink" width="58.74" height="52.22" fill-rule="evenodd" clip-rule="evenodd" preserveAspectRatio="xMidYMid meet" version="1.1" viewBox="0 0 640 640"><defs><path id="d2TFHItTV5" fill-rule="evenodd" d="M5.66 399.04L204 399.04L402.33 399.04L402.33 201.37L402.33 3.7L204 3.7L5.66 3.7L5.66 201.37L5.66 399.04ZM173.38 199.38C173.21 199.78 172.37 201.77 170.85 205.37L152.75 205.77L134.51 206.16C135.07 204.33 135.38 203.31 135.44 203.1C135.98 201.37 139.44 192.85 143.03 184.07C146.76 175.28 153.55 158.78 158.07 147.46C162.73 136.15 167.52 124.57 168.59 121.77C168.73 121.44 169.44 119.8 170.72 116.85C181.1 116.85 186.87 116.85 188.02 116.85C197.47 116.85 205.46 117.38 205.86 117.91C206.39 118.71 188.02 164.77 173.38 199.38ZM233.95 181.41C252.45 227.33 258.17 240.91 259.24 240.91C259.9 240.91 262.43 235.85 264.83 229.86C267.22 223.87 269.89 218.14 270.68 217.21C271.88 215.75 275.88 215.62 289.05 216.28C298.24 216.68 305.96 217.21 306.23 217.35C306.49 217.61 302.23 228.39 296.77 241.44C291.32 254.62 285.19 269.39 283.2 274.58C281.2 279.64 278.94 284.7 278.14 285.5C277.21 286.7 271.75 287.23 259.24 287.23C239.94 287.23 240.47 287.36 236.87 278.58C235.81 275.65 231.42 265.13 227.29 255.28C223.3 245.43 214.25 223.2 207.19 205.9C206.35 203.8 202.13 193.33 194.55 174.48C199.02 163.38 201.5 157.22 202 155.98C206.26 145.73 210.12 136.02 210.79 134.29C211.58 132.29 212.52 131.49 213.31 132.29C213.98 132.95 217.57 140.94 221.3 150.13C225.03 159.31 230.75 173.29 233.95 181.41ZM213.31 255.95C213.31 256.35 199.07 256.75 181.77 256.88C179.66 256.91 169.15 257.04 150.22 257.28L143.56 272.19L137.04 287.23C126.42 287.23 120.52 287.23 119.34 287.23C109.49 287.23 101.5 286.83 101.5 286.3C101.5 284.97 124.4 229.59 125.59 227.99C126.66 226.66 200.4 226 201.73 227.33C202.4 228.13 213.31 255.02 213.31 255.95Z" clip-rule="evenodd"/></defs><g><g><g><use fill-opacity="1" opacity="1" xlink:href="#d2TFHItTV5"/><g><use fill-opacity="0" stroke="#000" stroke-opacity="0" stroke-width="1" opacity="1" xlink:href="#d2TFHItTV5"/></g></g></g></g></svg>