<svg xmlns="http://www.w3.org/2000/svg" width="404" height="398.667" preserveAspectRatio="xMidYMid meet" version="1.0" viewBox="0 0 303 299"><g fill="#000" stroke="none"><path d="M40 1485 l0 -1485 1490 0 1490 0 0 1485 0 1485 -1490 0 -1490 0 0 -1485z m1504 627 c4 -6 -134 -352 -244 -612 l-19 -45 -136 -3 -137 -3 7 23 c4 13 30 77 57 143 28 66 79 190 113 275 35 85 71 172 79 193 l16 37 130 0 c71 0 131 -4 134 -8z m116 -242 c28 -69 71 -174 95 -235 139 -345 182 -447 190 -447 5 0 24 38 42 83 18 45 38 88 44 95 9 11 39 12 138 7 69 -3 127 -7 129 -8 2 -2 -30 -83 -71 -181 -41 -99 -87 -210 -102 -249 -15 -38 -32 -76 -38 -82 -7 -9 -48 -13 -142 -13 -145 0 -141 -1 -168 65 -8 22 -41 101 -72 175 -30 74 -98 241 -151 371 l-95 236 56 139 c32 77 61 150 66 163 6 15 13 21 19 15 5 -5 32 -65 60 -134z m-147 -580 c5 -6 87 -208 87 -215 0 -3 -107 -6 -237 -7 l-237 -3 -50 -112 -49 -113 -133 0 c-74 0 -134 3 -134 7 0 10 172 426 181 438 8 10 562 15 572 5z" transform="translate(0.000000,299.000000) scale(0.100000,-0.100000)"/></g></svg>